<mxfile host="app.diagrams.net" agent="Mozilla/5.0 (Windows NT 10.0; Win64; x64) AppleWebKit/537.36 (KHTML, like Gecko) Chrome/140.0.0.0 Safari/537.36 Edg/140.0.0.0" version="28.2.5">
  <diagram name="Pagina-1" id="5QTycMwjZl2z9XpZxttI">
    <mxGraphModel dx="1665" dy="1127" grid="1" gridSize="10" guides="1" tooltips="1" connect="1" arrows="1" fold="1" page="1" pageScale="1" pageWidth="827" pageHeight="1169" math="0" shadow="0">
      <root>
        <mxCell id="0" />
        <mxCell id="1" parent="0" />
        <mxCell id="od8p95JB6y80GkRBVF1g-4" style="edgeStyle=none;curved=1;rounded=0;orthogonalLoop=1;jettySize=auto;html=1;exitX=0.5;exitY=0;exitDx=0;exitDy=0;fontSize=12;startSize=8;endSize=8;endArrow=oval;endFill=0;" edge="1" parent="1">
          <mxGeometry relative="1" as="geometry">
            <mxPoint x="290" y="290" as="targetPoint" />
            <mxPoint x="290" y="310" as="sourcePoint" />
          </mxGeometry>
        </mxCell>
        <mxCell id="od8p95JB6y80GkRBVF1g-2" value="users" style="rounded=0;whiteSpace=wrap;html=1;" vertex="1" parent="1">
          <mxGeometry x="220" y="310" width="120" height="60" as="geometry" />
        </mxCell>
        <mxCell id="od8p95JB6y80GkRBVF1g-5" style="edgeStyle=none;curved=1;rounded=0;orthogonalLoop=1;jettySize=auto;html=1;exitX=0.5;exitY=0;exitDx=0;exitDy=0;fontSize=12;startSize=8;endSize=8;endArrow=oval;endFill=1;" edge="1" parent="1">
          <mxGeometry relative="1" as="geometry">
            <mxPoint x="330" y="290" as="targetPoint" />
            <mxPoint x="330" y="310" as="sourcePoint" />
          </mxGeometry>
        </mxCell>
        <mxCell id="od8p95JB6y80GkRBVF1g-6" value="id" style="text;html=1;align=center;verticalAlign=middle;whiteSpace=wrap;rounded=0;" vertex="1" parent="1">
          <mxGeometry x="300" y="260" width="60" height="30" as="geometry" />
        </mxCell>
        <mxCell id="od8p95JB6y80GkRBVF1g-7" value="email" style="text;html=1;align=center;verticalAlign=middle;whiteSpace=wrap;rounded=0;" vertex="1" parent="1">
          <mxGeometry x="260" y="260" width="60" height="30" as="geometry" />
        </mxCell>
        <mxCell id="od8p95JB6y80GkRBVF1g-8" style="edgeStyle=none;curved=1;rounded=0;orthogonalLoop=1;jettySize=auto;html=1;exitX=0.5;exitY=0;exitDx=0;exitDy=0;fontSize=12;startSize=8;endSize=8;endArrow=oval;endFill=0;" edge="1" parent="1">
          <mxGeometry relative="1" as="geometry">
            <mxPoint x="239.77" y="290" as="targetPoint" />
            <mxPoint x="239.77" y="310" as="sourcePoint" />
          </mxGeometry>
        </mxCell>
        <mxCell id="od8p95JB6y80GkRBVF1g-9" value="username" style="text;html=1;align=center;verticalAlign=middle;whiteSpace=wrap;rounded=0;" vertex="1" parent="1">
          <mxGeometry x="210" y="260" width="60" height="30" as="geometry" />
        </mxCell>
        <mxCell id="od8p95JB6y80GkRBVF1g-11" value="password_hash" style="text;html=1;align=center;verticalAlign=middle;whiteSpace=wrap;rounded=0;" vertex="1" parent="1">
          <mxGeometry x="90" y="306" width="60" height="30" as="geometry" />
        </mxCell>
        <mxCell id="od8p95JB6y80GkRBVF1g-13" value="publick_key" style="text;html=1;align=center;verticalAlign=middle;whiteSpace=wrap;rounded=0;" vertex="1" parent="1">
          <mxGeometry x="100" y="323" width="60" height="30" as="geometry" />
        </mxCell>
        <mxCell id="od8p95JB6y80GkRBVF1g-14" style="edgeStyle=none;curved=1;rounded=0;orthogonalLoop=1;jettySize=auto;html=1;exitX=0;exitY=0.167;exitDx=0;exitDy=0;fontSize=12;startSize=8;endSize=8;endArrow=oval;endFill=0;exitPerimeter=0;" edge="1" parent="1">
          <mxGeometry relative="1" as="geometry">
            <mxPoint x="180" y="323" as="targetPoint" />
            <mxPoint x="220" y="323.02" as="sourcePoint" />
          </mxGeometry>
        </mxCell>
        <mxCell id="od8p95JB6y80GkRBVF1g-15" style="edgeStyle=none;curved=1;rounded=0;orthogonalLoop=1;jettySize=auto;html=1;exitX=0;exitY=0.5;exitDx=0;exitDy=0;fontSize=12;startSize=8;endSize=8;endArrow=oval;endFill=0;" edge="1" parent="1">
          <mxGeometry relative="1" as="geometry">
            <mxPoint x="180" y="339" as="targetPoint" />
            <mxPoint x="220" y="339" as="sourcePoint" />
          </mxGeometry>
        </mxCell>
        <mxCell id="od8p95JB6y80GkRBVF1g-17" style="edgeStyle=none;curved=1;rounded=0;orthogonalLoop=1;jettySize=auto;html=1;exitX=0;exitY=0.75;exitDx=0;exitDy=0;fontSize=12;startSize=8;endSize=8;endArrow=oval;endFill=0;" edge="1" parent="1" source="od8p95JB6y80GkRBVF1g-2">
          <mxGeometry relative="1" as="geometry">
            <mxPoint x="180" y="355" as="targetPoint" />
            <mxPoint x="150" y="410" as="sourcePoint" />
          </mxGeometry>
        </mxCell>
        <mxCell id="od8p95JB6y80GkRBVF1g-18" value="created_at" style="text;html=1;align=center;verticalAlign=middle;whiteSpace=wrap;rounded=0;" vertex="1" parent="1">
          <mxGeometry x="100" y="340" width="60" height="30" as="geometry" />
        </mxCell>
        <mxCell id="od8p95JB6y80GkRBVF1g-19" style="edgeStyle=none;curved=1;rounded=0;orthogonalLoop=1;jettySize=auto;html=1;exitX=0.117;exitY=1.028;exitDx=0;exitDy=0;fontSize=12;startSize=8;endSize=8;endArrow=oval;endFill=0;exitPerimeter=0;" edge="1" parent="1">
          <mxGeometry relative="1" as="geometry">
            <mxPoint x="234" y="398.32" as="targetPoint" />
            <mxPoint x="234.04000000000002" y="369.99999999999994" as="sourcePoint" />
            <Array as="points">
              <mxPoint x="234" y="378.32" />
            </Array>
          </mxGeometry>
        </mxCell>
        <mxCell id="od8p95JB6y80GkRBVF1g-20" value="last_seen_at" style="text;html=1;align=center;verticalAlign=middle;whiteSpace=wrap;rounded=0;" vertex="1" parent="1">
          <mxGeometry x="190" y="400" width="60" height="30" as="geometry" />
        </mxCell>
        <mxCell id="od8p95JB6y80GkRBVF1g-21" value="is_active" style="text;html=1;align=center;verticalAlign=middle;whiteSpace=wrap;rounded=0;" vertex="1" parent="1">
          <mxGeometry x="260" y="400" width="60" height="30" as="geometry" />
        </mxCell>
        <mxCell id="od8p95JB6y80GkRBVF1g-22" style="edgeStyle=none;curved=1;rounded=0;orthogonalLoop=1;jettySize=auto;html=1;exitX=0.117;exitY=1.028;exitDx=0;exitDy=0;fontSize=12;startSize=8;endSize=8;endArrow=oval;endFill=0;exitPerimeter=0;" edge="1" parent="1">
          <mxGeometry relative="1" as="geometry">
            <mxPoint x="279.84" y="398.32000000000005" as="targetPoint" />
            <mxPoint x="279.88" y="370" as="sourcePoint" />
            <Array as="points">
              <mxPoint x="279.84" y="378.32000000000005" />
            </Array>
          </mxGeometry>
        </mxCell>
        <mxCell id="od8p95JB6y80GkRBVF1g-23" value="files" style="rounded=0;whiteSpace=wrap;html=1;" vertex="1" parent="1">
          <mxGeometry x="430" y="290" width="120" height="60" as="geometry" />
        </mxCell>
        <mxCell id="od8p95JB6y80GkRBVF1g-24" style="edgeStyle=none;curved=1;rounded=0;orthogonalLoop=1;jettySize=auto;html=1;exitX=0.5;exitY=0;exitDx=0;exitDy=0;fontSize=12;startSize=8;endSize=8;endArrow=oval;endFill=1;" edge="1" parent="1">
          <mxGeometry relative="1" as="geometry">
            <mxPoint x="450" y="270" as="targetPoint" />
            <mxPoint x="450" y="290" as="sourcePoint" />
          </mxGeometry>
        </mxCell>
        <mxCell id="od8p95JB6y80GkRBVF1g-25" value="id" style="text;html=1;align=center;verticalAlign=middle;whiteSpace=wrap;rounded=0;" vertex="1" parent="1">
          <mxGeometry x="420" y="240" width="60" height="30" as="geometry" />
        </mxCell>
        <mxCell id="od8p95JB6y80GkRBVF1g-26" style="edgeStyle=none;curved=1;rounded=0;orthogonalLoop=1;jettySize=auto;html=1;exitX=0.5;exitY=0;exitDx=0;exitDy=0;fontSize=12;startSize=8;endSize=8;endArrow=oval;endFill=0;" edge="1" parent="1">
          <mxGeometry relative="1" as="geometry">
            <mxPoint x="480" y="270" as="targetPoint" />
            <mxPoint x="480" y="290" as="sourcePoint" />
          </mxGeometry>
        </mxCell>
        <mxCell id="od8p95JB6y80GkRBVF1g-27" value="message_id" style="text;html=1;align=center;verticalAlign=middle;whiteSpace=wrap;rounded=0;" vertex="1" parent="1">
          <mxGeometry x="470" y="240" width="60" height="30" as="geometry" />
        </mxCell>
        <mxCell id="od8p95JB6y80GkRBVF1g-28" style="edgeStyle=none;curved=1;rounded=0;orthogonalLoop=1;jettySize=auto;html=1;exitX=1;exitY=0.25;exitDx=0;exitDy=0;fontSize=12;startSize=8;endSize=8;endArrow=oval;endFill=0;" edge="1" parent="1">
          <mxGeometry relative="1" as="geometry">
            <mxPoint x="580" y="301" as="targetPoint" />
            <mxPoint x="549.9999999999999" y="301" as="sourcePoint" />
          </mxGeometry>
        </mxCell>
        <mxCell id="od8p95JB6y80GkRBVF1g-29" style="edgeStyle=none;curved=1;rounded=0;orthogonalLoop=1;jettySize=auto;html=1;exitX=1;exitY=0.25;exitDx=0;exitDy=0;fontSize=12;startSize=8;endSize=8;endArrow=oval;endFill=0;" edge="1" parent="1">
          <mxGeometry relative="1" as="geometry">
            <mxPoint x="580" y="320" as="targetPoint" />
            <mxPoint x="550" y="320" as="sourcePoint" />
          </mxGeometry>
        </mxCell>
        <mxCell id="od8p95JB6y80GkRBVF1g-30" style="edgeStyle=none;curved=1;rounded=0;orthogonalLoop=1;jettySize=auto;html=1;exitX=1;exitY=0.25;exitDx=0;exitDy=0;fontSize=12;startSize=8;endSize=8;endArrow=oval;endFill=0;" edge="1" parent="1">
          <mxGeometry relative="1" as="geometry">
            <mxPoint x="580" y="340" as="targetPoint" />
            <mxPoint x="550" y="340" as="sourcePoint" />
          </mxGeometry>
        </mxCell>
        <mxCell id="od8p95JB6y80GkRBVF1g-31" value="filename" style="text;html=1;align=center;verticalAlign=middle;whiteSpace=wrap;rounded=0;" vertex="1" parent="1">
          <mxGeometry x="589" y="286" width="60" height="30" as="geometry" />
        </mxCell>
        <mxCell id="od8p95JB6y80GkRBVF1g-32" value="file_data" style="text;html=1;align=center;verticalAlign=middle;whiteSpace=wrap;rounded=0;" vertex="1" parent="1">
          <mxGeometry x="589" y="306" width="60" height="30" as="geometry" />
        </mxCell>
        <mxCell id="od8p95JB6y80GkRBVF1g-33" value="uploadet_at" style="text;html=1;align=center;verticalAlign=middle;whiteSpace=wrap;rounded=0;" vertex="1" parent="1">
          <mxGeometry x="597" y="325" width="60" height="30" as="geometry" />
        </mxCell>
        <mxCell id="od8p95JB6y80GkRBVF1g-34" value="blocked_users" style="rounded=0;whiteSpace=wrap;html=1;" vertex="1" parent="1">
          <mxGeometry x="570" y="580" width="120" height="60" as="geometry" />
        </mxCell>
        <mxCell id="od8p95JB6y80GkRBVF1g-37" value="blocker_id" style="text;html=1;align=center;verticalAlign=middle;whiteSpace=wrap;rounded=0;" vertex="1" parent="1">
          <mxGeometry x="570" y="530" width="60" height="30" as="geometry" />
        </mxCell>
        <mxCell id="od8p95JB6y80GkRBVF1g-38" value="blocked_id" style="text;html=1;align=center;verticalAlign=middle;whiteSpace=wrap;rounded=0;" vertex="1" parent="1">
          <mxGeometry x="640" y="530" width="60" height="30" as="geometry" />
        </mxCell>
        <mxCell id="od8p95JB6y80GkRBVF1g-39" value="created_at" style="text;html=1;align=center;verticalAlign=middle;whiteSpace=wrap;rounded=0;" vertex="1" parent="1">
          <mxGeometry x="732" y="585" width="60" height="30" as="geometry" />
        </mxCell>
        <mxCell id="od8p95JB6y80GkRBVF1g-41" style="edgeStyle=none;curved=1;rounded=0;orthogonalLoop=1;jettySize=auto;html=1;exitX=1;exitY=0.25;exitDx=0;exitDy=0;fontSize=12;startSize=8;endSize=8;endArrow=oval;endFill=0;" edge="1" parent="1">
          <mxGeometry relative="1" as="geometry">
            <mxPoint x="720" y="600" as="targetPoint" />
            <mxPoint x="690" y="600" as="sourcePoint" />
          </mxGeometry>
        </mxCell>
        <mxCell id="od8p95JB6y80GkRBVF1g-42" value="messages" style="rounded=0;whiteSpace=wrap;html=1;" vertex="1" parent="1">
          <mxGeometry x="100" y="680" width="120" height="60" as="geometry" />
        </mxCell>
        <mxCell id="od8p95JB6y80GkRBVF1g-43" style="edgeStyle=none;curved=1;rounded=0;orthogonalLoop=1;jettySize=auto;html=1;exitX=0.5;exitY=0;exitDx=0;exitDy=0;fontSize=12;startSize=8;endSize=8;endArrow=oval;endFill=1;" edge="1" parent="1">
          <mxGeometry relative="1" as="geometry">
            <mxPoint x="110" y="660" as="targetPoint" />
            <mxPoint x="110" y="680" as="sourcePoint" />
          </mxGeometry>
        </mxCell>
        <mxCell id="od8p95JB6y80GkRBVF1g-44" value="id" style="text;html=1;align=center;verticalAlign=middle;whiteSpace=wrap;rounded=0;" vertex="1" parent="1">
          <mxGeometry x="80" y="630" width="60" height="30" as="geometry" />
        </mxCell>
        <mxCell id="od8p95JB6y80GkRBVF1g-45" value="sender_id" style="text;html=1;align=center;verticalAlign=middle;whiteSpace=wrap;rounded=0;" vertex="1" parent="1">
          <mxGeometry x="261" y="695" width="60" height="30" as="geometry" />
        </mxCell>
        <mxCell id="od8p95JB6y80GkRBVF1g-46" value="receiver_id" style="text;html=1;align=center;verticalAlign=middle;whiteSpace=wrap;rounded=0;" vertex="1" parent="1">
          <mxGeometry x="264" y="678" width="60" height="30" as="geometry" />
        </mxCell>
        <mxCell id="od8p95JB6y80GkRBVF1g-47" value="chipertext" style="text;html=1;align=center;verticalAlign=middle;whiteSpace=wrap;rounded=0;" vertex="1" parent="1">
          <mxGeometry x="120" y="630" width="60" height="30" as="geometry" />
        </mxCell>
        <mxCell id="od8p95JB6y80GkRBVF1g-48" value="sent_at" style="text;html=1;align=center;verticalAlign=middle;whiteSpace=wrap;rounded=0;" vertex="1" parent="1">
          <mxGeometry x="170" y="770" width="60" height="30" as="geometry" />
        </mxCell>
        <mxCell id="od8p95JB6y80GkRBVF1g-49" value="delivered" style="text;html=1;align=center;verticalAlign=middle;whiteSpace=wrap;rounded=0;" vertex="1" parent="1">
          <mxGeometry x="180" y="630" width="60" height="30" as="geometry" />
        </mxCell>
        <mxCell id="od8p95JB6y80GkRBVF1g-50" value="delivered_at" style="text;html=1;align=center;verticalAlign=middle;whiteSpace=wrap;rounded=0;" vertex="1" parent="1">
          <mxGeometry x="267" y="714" width="60" height="30" as="geometry" />
        </mxCell>
        <mxCell id="od8p95JB6y80GkRBVF1g-51" style="edgeStyle=none;curved=1;rounded=0;orthogonalLoop=1;jettySize=auto;html=1;exitX=0.5;exitY=0;exitDx=0;exitDy=0;fontSize=12;startSize=8;endSize=8;endArrow=oval;endFill=0;" edge="1" parent="1">
          <mxGeometry relative="1" as="geometry">
            <mxPoint x="149.76" y="660" as="targetPoint" />
            <mxPoint x="149.76" y="680" as="sourcePoint" />
          </mxGeometry>
        </mxCell>
        <mxCell id="od8p95JB6y80GkRBVF1g-52" style="edgeStyle=none;curved=1;rounded=0;orthogonalLoop=1;jettySize=auto;html=1;exitX=1;exitY=0.25;exitDx=0;exitDy=0;fontSize=12;startSize=8;endSize=8;endArrow=oval;endFill=0;" edge="1" parent="1">
          <mxGeometry relative="1" as="geometry">
            <mxPoint x="250" y="693" as="targetPoint" />
            <mxPoint x="220" y="693" as="sourcePoint" />
          </mxGeometry>
        </mxCell>
        <mxCell id="od8p95JB6y80GkRBVF1g-53" style="edgeStyle=none;curved=1;rounded=0;orthogonalLoop=1;jettySize=auto;html=1;exitX=1;exitY=0.25;exitDx=0;exitDy=0;fontSize=12;startSize=8;endSize=8;endArrow=oval;endFill=0;" edge="1" parent="1">
          <mxGeometry relative="1" as="geometry">
            <mxPoint x="250" y="710.76" as="targetPoint" />
            <mxPoint x="220" y="710.76" as="sourcePoint" />
          </mxGeometry>
        </mxCell>
        <mxCell id="od8p95JB6y80GkRBVF1g-54" style="edgeStyle=none;curved=1;rounded=0;orthogonalLoop=1;jettySize=auto;html=1;exitX=1;exitY=0.25;exitDx=0;exitDy=0;fontSize=12;startSize=8;endSize=8;endArrow=oval;endFill=0;" edge="1" parent="1">
          <mxGeometry relative="1" as="geometry">
            <mxPoint x="250" y="728" as="targetPoint" />
            <mxPoint x="220" y="728" as="sourcePoint" />
          </mxGeometry>
        </mxCell>
        <mxCell id="od8p95JB6y80GkRBVF1g-57" style="edgeStyle=none;curved=1;rounded=0;orthogonalLoop=1;jettySize=auto;html=1;exitX=0.5;exitY=0;exitDx=0;exitDy=0;fontSize=12;startSize=8;endSize=8;endArrow=oval;endFill=0;" edge="1" parent="1">
          <mxGeometry relative="1" as="geometry">
            <mxPoint x="199.72000000000003" y="660" as="targetPoint" />
            <mxPoint x="199.72000000000003" y="680" as="sourcePoint" />
          </mxGeometry>
        </mxCell>
        <mxCell id="od8p95JB6y80GkRBVF1g-58" style="edgeStyle=none;curved=1;rounded=0;orthogonalLoop=1;jettySize=auto;html=1;exitX=0.117;exitY=1.028;exitDx=0;exitDy=0;fontSize=12;startSize=8;endSize=8;endArrow=oval;endFill=0;exitPerimeter=0;" edge="1" parent="1">
          <mxGeometry relative="1" as="geometry">
            <mxPoint x="200" y="768.32" as="targetPoint" />
            <mxPoint x="200.04000000000002" y="740" as="sourcePoint" />
            <Array as="points">
              <mxPoint x="200" y="748.32" />
            </Array>
          </mxGeometry>
        </mxCell>
        <mxCell id="od8p95JB6y80GkRBVF1g-59" value="friend_requests" style="rounded=0;whiteSpace=wrap;html=1;" vertex="1" parent="1">
          <mxGeometry x="450" y="830" width="120" height="60" as="geometry" />
        </mxCell>
        <mxCell id="od8p95JB6y80GkRBVF1g-62" style="edgeStyle=none;curved=1;rounded=0;orthogonalLoop=1;jettySize=auto;html=1;exitX=0.5;exitY=0;exitDx=0;exitDy=0;fontSize=12;startSize=8;endSize=8;endArrow=oval;endFill=1;" edge="1" parent="1">
          <mxGeometry relative="1" as="geometry">
            <mxPoint x="459.8" y="810" as="targetPoint" />
            <mxPoint x="459.8" y="830" as="sourcePoint" />
          </mxGeometry>
        </mxCell>
        <mxCell id="od8p95JB6y80GkRBVF1g-63" value="id" style="text;html=1;align=center;verticalAlign=middle;whiteSpace=wrap;rounded=0;" vertex="1" parent="1">
          <mxGeometry x="430" y="780" width="60" height="30" as="geometry" />
        </mxCell>
        <mxCell id="od8p95JB6y80GkRBVF1g-64" style="edgeStyle=none;curved=1;rounded=0;orthogonalLoop=1;jettySize=auto;html=1;exitX=0.5;exitY=0;exitDx=0;exitDy=0;fontSize=12;startSize=8;endSize=8;endArrow=oval;endFill=0;" edge="1" parent="1">
          <mxGeometry relative="1" as="geometry">
            <mxPoint x="490" y="810" as="targetPoint" />
            <mxPoint x="490" y="830" as="sourcePoint" />
          </mxGeometry>
        </mxCell>
        <mxCell id="od8p95JB6y80GkRBVF1g-65" value="sender_id" style="text;html=1;align=center;verticalAlign=middle;whiteSpace=wrap;rounded=0;" vertex="1" parent="1">
          <mxGeometry x="470" y="780" width="60" height="30" as="geometry" />
        </mxCell>
        <mxCell id="od8p95JB6y80GkRBVF1g-66" value="receiver_id" style="text;html=1;align=center;verticalAlign=middle;whiteSpace=wrap;rounded=0;" vertex="1" parent="1">
          <mxGeometry x="540" y="780" width="60" height="30" as="geometry" />
        </mxCell>
        <mxCell id="od8p95JB6y80GkRBVF1g-68" style="edgeStyle=none;curved=1;rounded=0;orthogonalLoop=1;jettySize=auto;html=1;exitX=0.5;exitY=0;exitDx=0;exitDy=0;fontSize=12;startSize=8;endSize=8;endArrow=oval;endFill=0;" edge="1" parent="1">
          <mxGeometry relative="1" as="geometry">
            <mxPoint x="550" y="810" as="targetPoint" />
            <mxPoint x="550" y="830" as="sourcePoint" />
          </mxGeometry>
        </mxCell>
        <mxCell id="od8p95JB6y80GkRBVF1g-69" style="edgeStyle=none;curved=1;rounded=0;orthogonalLoop=1;jettySize=auto;html=1;exitX=1;exitY=0.25;exitDx=0;exitDy=0;fontSize=12;startSize=8;endSize=8;endArrow=oval;endFill=0;" edge="1" parent="1">
          <mxGeometry relative="1" as="geometry">
            <mxPoint x="600" y="843" as="targetPoint" />
            <mxPoint x="570" y="843" as="sourcePoint" />
          </mxGeometry>
        </mxCell>
        <mxCell id="od8p95JB6y80GkRBVF1g-70" value="status" style="text;html=1;align=center;verticalAlign=middle;whiteSpace=wrap;rounded=0;" vertex="1" parent="1">
          <mxGeometry x="600" y="827" width="60" height="30" as="geometry" />
        </mxCell>
        <mxCell id="od8p95JB6y80GkRBVF1g-71" style="edgeStyle=none;curved=1;rounded=0;orthogonalLoop=1;jettySize=auto;html=1;exitX=1;exitY=0.25;exitDx=0;exitDy=0;fontSize=12;startSize=8;endSize=8;endArrow=oval;endFill=0;" edge="1" parent="1">
          <mxGeometry relative="1" as="geometry">
            <mxPoint x="600" y="860.71" as="targetPoint" />
            <mxPoint x="570" y="860.71" as="sourcePoint" />
          </mxGeometry>
        </mxCell>
        <mxCell id="od8p95JB6y80GkRBVF1g-72" value="created_at" style="text;html=1;align=center;verticalAlign=middle;whiteSpace=wrap;rounded=0;" vertex="1" parent="1">
          <mxGeometry x="612" y="845" width="60" height="30" as="geometry" />
        </mxCell>
        <mxCell id="od8p95JB6y80GkRBVF1g-74" style="edgeStyle=none;curved=1;rounded=0;orthogonalLoop=1;jettySize=auto;html=1;exitX=1;exitY=0.25;exitDx=0;exitDy=0;fontSize=12;startSize=8;endSize=8;endArrow=oval;endFill=0;" edge="1" parent="1">
          <mxGeometry relative="1" as="geometry">
            <mxPoint x="600" y="879" as="targetPoint" />
            <mxPoint x="570" y="879" as="sourcePoint" />
          </mxGeometry>
        </mxCell>
        <mxCell id="od8p95JB6y80GkRBVF1g-75" value="responded_at" style="text;html=1;align=center;verticalAlign=middle;whiteSpace=wrap;rounded=0;" vertex="1" parent="1">
          <mxGeometry x="620" y="863" width="60" height="30" as="geometry" />
        </mxCell>
        <mxCell id="od8p95JB6y80GkRBVF1g-76" style="edgeStyle=none;curved=1;rounded=0;orthogonalLoop=1;jettySize=auto;html=1;exitX=0.5;exitY=0;exitDx=0;exitDy=0;fontSize=12;startSize=8;endSize=8;endArrow=oval;endFill=0;" edge="1" parent="1">
          <mxGeometry relative="1" as="geometry">
            <mxPoint x="660" y="560" as="targetPoint" />
            <mxPoint x="660" y="580" as="sourcePoint" />
          </mxGeometry>
        </mxCell>
        <mxCell id="od8p95JB6y80GkRBVF1g-77" style="edgeStyle=none;curved=1;rounded=0;orthogonalLoop=1;jettySize=auto;html=1;exitX=0.5;exitY=0;exitDx=0;exitDy=0;fontSize=12;startSize=8;endSize=8;endArrow=oval;endFill=0;" edge="1" parent="1">
          <mxGeometry relative="1" as="geometry">
            <mxPoint x="590" y="560" as="targetPoint" />
            <mxPoint x="590" y="580" as="sourcePoint" />
          </mxGeometry>
        </mxCell>
        <mxCell id="od8p95JB6y80GkRBVF1g-78" style="edgeStyle=none;curved=1;rounded=0;orthogonalLoop=1;jettySize=auto;html=1;fontSize=12;startSize=8;endSize=8;endArrow=oval;endFill=1;" edge="1" parent="1">
          <mxGeometry relative="1" as="geometry">
            <mxPoint x="685" y="570" as="targetPoint" />
            <mxPoint x="580" y="570" as="sourcePoint" />
          </mxGeometry>
        </mxCell>
      </root>
    </mxGraphModel>
  </diagram>
</mxfile>
